<svg xmlns="http://www.w3.org/2000/svg" width="24" height="24" viewBox="0 0 24 24" fill="none" stroke="currentColor" stroke-width="2" stroke-linecap="round" stroke-linejoin="round" class="lucide lucide-baseball"><path d="M5.5 2.04c-1.95.8-3.67 2.72-4.46 4.54"/><path d="M22.96 5.5c-.8-1.95-2.72-3.67-4.54-4.46"/><path d="M18.5 21.96c1.95-.8 3.67-2.72 4.46-4.54"/><path d="M1.04 18.5c.8 1.95 2.72 3.67 4.54 4.46"/><path d="M3 12c0-4.97 4.03-9 9-9s9 4.03 9 9-4.03 9-9 9-9-4.03-9-9z"/><path d="M7.7 10.7 4.9 7.9"/><path d="M16.3 10.7l2.8-2.8"/><path d="M7.7 13.3l-2.8 2.8"/><path d="M16.3 13.3l2.8 2.8"/></svg>